ply
format ascii 1.0
element vertex 30
property float x
property float y
property float z
property float dummyDesc0
property float dummyDesc1
property float dummyDesc2
property float eigValues0
property float eigValues1
property float eigValues2
end_header
0 0 0 0.6803754 -0.2112341 0.5661984 0.125 0.75 0.25
0 1 0 0.5968801 0.8232947 -0.6048973 0.28125 0.109835 0.640165
0 2 0 -0.3295545 0.5364592 -0.4444506 0.109835 0.28125 0.640165
0 3 0 0.1079399 -0.0452059 0.2577418 0.125 0.75 0.25
0 4 0 -0.2704311 0.02680182 0.9044595 0.125 0.75 0.25
0 5 0 0.8323901 0.2714235 0.4345939 0.125 0.75 0.25
0 6 0 -0.7167949 0.2139378 -0.9673989 0.125 0.75 0.25
0 7 0 -0.5142265 -0.7255368 0.6083535 0.109835 0.28125 0.640165
0 8 0 -0.6866418 -0.1981112 -0.7404191 0.109835 0.28125 0.640165
0 9 0 -0.7823824 0.997849 -0.5634862 0.125 0.75 0.25
1 0 0 0.02586479 0.6782245 0.2252797 0.75 0.125 0.25
1 1 0 -0.4079368 0.2751045 0.04857438 0.5 0.09375 0.5
1 2 0 -0.01283403 0.94555 -0.4149664 0.6390762 0.08482512 0.4323487
1 3 0 0.5427154 0.05348996 0.5398277 0.75 0.125 0.25
1 4 0 -0.1995428 0.7830589 -0.4333705 0.75 0.125 0.25
1 5 0 -0.2950833 0.615449 0.8380529 0.75 0.125 0.25
1 6 0 -0.8604894 0.8986542 0.0519907 0.75 0.125 0.25
1 7 0 -0.8278883 -0.6155723 0.3264539 0.6390762 0.08482512 0.4323487
1 8 0 0.7804652 -0.3022141 -0.8716574 0.5 0.09375 0.5
1 9 0 -0.9599539 -0.08459653 -0.8738083 0.75 0.125 0.25
0 0 1 -0.4054231 0.8098649 0.8192859 0.125 0.75 0.25
0 1 1 0.7479579 -0.003712147 0.1523991 0.08482512 0.6390762 0.4323487
0 2 1 -0.6744865 -0.4521777 0.7291579 0.08482512 0.6390762 0.4323487
0 3 1 -0.01520236 -0.0726757 0.6978843 0.125 0.75 0.25
0 4 1 -0.008045207 -0.4178934 -0.6391575 0.125 0.75 0.25
0 5 1 0.3683569 0.4551006 -0.7218836 0.125 0.75 0.25
0 6 1 0.2062177 -0.01515656 0.6762672 0.125 0.75 0.25
0 7 1 0.448504 -0.643585 -0.5560689 0.08482512 0.6390762 0.4323487
0 8 1 -0.002949035 -0.7574824 -0.7235231 0.08482512 0.6390762 0.4323487
0 9 1 -0.2791148 -0.350386 0.8637906 0.125 0.75 0.25
