ply
format ascii 1.0
element vertex 100
property float x
property float y
property float z
property float dummyDesc0
property float dummyDesc1
property float dummyDesc2
end_header
0 0 0 0.6803754 -0.2112341 0.5661984
0 1 0 0.5968801 0.8232947 -0.6048973
0 2 0 -0.3295545 0.5364592 -0.4444506
0 3 0 0.1079399 -0.0452059 0.2577418
0 4 0 -0.2704311 0.02680182 0.9044595
0 5 0 0.8323901 0.2714235 0.4345939
0 6 0 -0.7167949 0.2139378 -0.9673989
0 7 0 -0.5142265 -0.7255368 0.6083535
0 8 0 -0.6866418 -0.1981112 -0.7404191
0 9 0 -0.7823824 0.997849 -0.5634862
1 0 0 0.02586479 0.6782245 0.2252797
1 1 0 -0.4079368 0.2751045 0.04857438
1 2 0 -0.01283403 0.94555 -0.4149664
1 3 0 0.5427154 0.05348996 0.5398277
1 4 0 -0.1995428 0.7830589 -0.4333705
1 5 0 -0.2950833 0.615449 0.8380529
1 6 0 -0.8604894 0.8986542 0.0519907
1 7 0 -0.8278883 -0.6155723 0.3264539
1 8 0 0.7804652 -0.3022141 -0.8716574
1 9 0 -0.9599539 -0.08459653 -0.8738083
2 0 0 -0.5234401 0.9412683 0.8044161
2 1 0 0.7018396 -0.4666685 0.07952068
2 2 0 -0.249586 0.5204975 0.02507073
2 3 0 0.3354475 0.06321287 -0.9214393
2 4 0 -0.1247248 0.8636701 0.8616196
2 5 0 0.4419047 -0.4314132 0.4770686
2 6 0 0.2799576 -0.2919026 0.3757228
2 7 0 -0.6680517 -0.1197909 0.7601505
2 8 0 0.6584022 -0.3393257 -0.5420637
2 9 0 0.7867448 -0.2992796 0.3733398
3 0 0 0.9129365 0.1772803 0.3146081
3 1 0 0.7173527 -0.1208802 0.8479396
3 2 0 -0.2031267 0.6295338 0.3684371
3 3 0 0.8219441 -0.03501869 -0.5683501
3 4 0 0.9005047 0.8402565 -0.70468
3 5 0 0.7621243 0.2821612 -0.1360932
3 6 0 0.239193 -0.4378812 0.5720042
3 7 0 -0.3850843 -0.1059328 -0.5477867
3 8 0 -0.6249338 -0.4475307 0.1128875
3 9 0 -0.1669974 -0.6607858 0.8136079
4 0 0 -0.7936576 -0.7478493 -0.009111867
4 1 0 0.5209505 0.9695033 0.870008
4 2 0 0.36889 -0.2336233 0.4995418
4 3 0 -0.2626729 -0.4116793 -0.5354769
4 4 0 0.168977 -0.5111745 -0.6952204
4 5 0 0.464297 -0.7490502 0.5869408
4 6 0 -0.6717961 0.4901428 -0.8509404
4 7 0 0.9002081 -0.8949415 0.04312676
4 8 0 -0.6475787 -0.5198753 0.5955961
4 9 0 0.4653088 0.3131273 0.9348103
5 0 0 0.2789167 0.5194697 -0.813039
5 1 0 -0.7301952 0.04042014 -0.8435357
5 2 0 -0.8601872 -0.5906898 -0.07715905
5 3 0 0.6393546 0.1466373 0.5111617
5 4 0 -0.8961224 -0.6843857 0.9999871
5 5 0 -0.5913428 0.7799113 -0.749063
5 6 0 0.995598 -0.8918848 0.7410797
5 7 0 -0.8553424 -0.9916768 0.8461383
5 8 0 0.1877844 -0.6392555 -0.673737
5 9 0 -0.2166195 0.8260534 0.6393903
6 0 0 -0.2818093 0.10497 0.15886
6 1 0 -0.09484831 0.3747749 -0.8007199
6 2 0 0.06161598 0.5145877 -0.3914097
6 3 0 0.9844569 0.1539422 0.7552276
6 4 0 0.4956186 0.2578199 -0.9291582
6 5 0 0.4956057 0.6664771 0.8507531
6 6 0 0.7465427 0.6620751 0.9588683
6 7 0 0.4876224 0.8067327 0.9671915
6 8 0 0.3337607 -0.005482962 -0.672064
6 9 0 0.6600237 0.7778975 -0.8460106
7 0 0 0.299414 -0.5039118 0.2589594
7 1 0 -0.541726 0.4012399 -0.3662657
7 2 0 -0.3424459 -0.5371441 -0.8516781
7 3 0 0.2661444 -0.5526872 0.3022642
7 4 0 0.02137194 0.9429314 -0.439916
7 5 0 0.09221376 0.4385372 -0.7734389
7 6 0 -0.05703314 0.1850798 0.8886362
7 7 0 -0.09816488 -0.3272977 0.6953689
7 8 0 -0.1309734 -0.9935371 -0.3101141
7 9 0 0.1969626 0.6664866 -0.5322166
8 0 0 0.350952 -0.03409944 -0.03612835
8 1 0 -0.3900886 0.4241745 -0.6348884
8 2 0 0.2436456 -0.9182714 -0.1720325
8 3 0 0.3919676 0.347873 0.2752803
8 4 0 -0.3057683 -0.6307551 0.2182117
8 5 0 0.2543158 0.4614587 -0.3432511
8 6 0 0.4808769 -0.5955745 0.8418287
8 7 0 0.3695131 0.3062607 -0.485469
8 8 0 0.06488195 -0.8247127 -0.4790061
8 9 0 0.7547679 0.3722499 -0.8125195
9 0 0 -0.7774487 -0.2767982 0.153381
9 1 0 0.1864229 0.3331132 -0.4224444
9 2 0 0.5515345 -0.4232412 -0.3407158
9 3 0 -0.620498 0.9687264 -0.9928429
9 4 0 0.6547823 -0.3370418 -0.6235979
9 5 0 -0.127006 0.9172739 0.8378608
9 6 0 0.5297429 0.3981508 -0.7577137
9 7 0 0.3715716 -0.2323361 0.548547
9 8 0 0.8861025 0.8325458 0.7238342
9 9 0 -0.5929036 0.5873137 0.0960841
